<?xml version="1.0" standalone="no"?>
<!DOCTYPE svg PUBLIC "-//W3C//DTD SVG 20010904//EN"
 "http://www.w3.org/TR/2001/REC-SVG-20010904/DTD/svg10.dtd">
<svg version="1.0" xmlns="http://www.w3.org/2000/svg"
 width="200.000000pt" height="200.000000pt" viewBox="0 0 200.000000 200.000000"
 preserveAspectRatio="xMidYMid meet">
<metadata>
Created by potrace 1.16, written by Peter Selinger 2001-2019
</metadata>
<g transform="translate(0.000000,200.000000) scale(0.100000,-0.100000)"
fill="#000000" stroke="none">
<path d="M1063 1625 c-126 -34 -253 -134 -312 -244 -70 -132 -83 -348 -21
-358 35 -6 42 13 44 113 2 69 8 113 21 144 53 130 152 223 277 261 199 61 410
-35 505 -229 26 -53 28 -66 28 -172 -1 -120 -5 -136 -64 -239 -41 -70 30 -101
76 -33 70 105 94 290 54 420 -51 170 -199 306 -369 341 -71 15 -175 13 -239
-4z"/>
<path d="M1173 1413 c-7 -2 -13 -17 -13 -31 0 -20 -7 -30 -28 -40 -35 -15 -56
-52 -56 -98 0 -50 32 -86 100 -110 66 -24 85 -44 65 -68 -29 -34 -101 -10
-101 33 0 24 -24 44 -47 39 -53 -10 -28 -119 34 -148 25 -12 33 -21 33 -43 0
-52 62 -47 68 7 2 15 10 26 18 26 9 0 29 13 45 29 23 24 29 38 29 75 0 59 -28
92 -99 115 -65 21 -84 43 -59 68 14 14 22 15 43 5 14 -6 30 -23 37 -37 14 -32
63 -36 73 -6 9 31 -20 88 -54 106 -21 10 -31 23 -31 38 0 37 -24 54 -57 40z"/>
<path d="M495 953 c-28 -10 -89 -46 -135 -79 -55 -39 -103 -65 -135 -73 -109
-26 -125 -32 -135 -51 -12 -22 -5 -46 17 -54 15 -6 157 26 202 45 14 6 61 36
105 69 96 69 147 86 209 70 184 -49 604 -183 614 -197 11 -14 10 -21 -1 -37
-16 -24 -6 -23 -257 -11 -162 7 -167 7 -178 -13 -8 -16 -7 -24 7 -40 15 -17
39 -21 220 -31 191 -11 206 -11 235 6 43 25 70 81 61 128 -13 70 -33 80 -364
182 -340 103 -390 113 -465 86z"/>
<path d="M1600 780 c-113 -38 -210 -77 -216 -85 -15 -20 -7 -52 14 -60 9 -3
104 24 211 61 206 71 243 76 256 33 17 -51 9 -57 -361 -257 -272 -147 -366
-193 -393 -194 -24 0 -145 41 -341 118 -356 137 -355 137 -475 78 -73 -36 -80
-41 -80 -69 0 -43 34 -44 128 -1 l77 35 207 -78 c115 -44 255 -98 313 -121
128 -52 198 -57 270 -20 195 99 680 368 703 388 63 59 51 179 -21 216 -62 32
-79 29 -292 -44z"/>
</g>
</svg>
